<svg height="480pt" viewBox="-41 0 480 480" width="480pt" xmlns="http://www.w3.org/2000/svg"><path d="m199.363281 80c-88.367187 0-160 71.632812-160 160s71.632813 160 160 160c88.363281 0 160-71.632812 160-160-.101562-88.324219-71.675781-159.898438-160-160zm78.757813 280.40625-11.832032-20.484375c-1.417968-2.496094-4.0625-4.042969-6.933593-4.046875-2.871094-.007812-5.527344 1.523438-6.957031 4.015625-1.429688 2.488281-1.414063 5.554687.035156 8.03125l11.808594 20.460937c-17.699219 8.964844-37.070313 14.140626-56.878907 15.203126v-23.585938c0-4.417969-3.582031-8-8-8s-8 3.582031-8 8v23.59375c-19.808593-1.0625-39.183593-6.238281-56.878906-15.203125l11.804687-20.460937c2.175782-3.824219.855469-8.683594-2.953124-10.882813-3.808594-2.199219-8.675782-.914063-10.902344 2.882813l-11.832032 20.484374c-16.582031-10.886718-30.757812-25.0625-41.648437-41.644531l20.488281-11.832031c2.496094-1.421875 4.042969-4.066406 4.046875-6.9375.007813-2.871094-1.527343-5.527344-4.015625-6.957031-2.488281-1.429688-5.554687-1.414063-8.03125.035156l-20.460937 11.800781c-8.964844-17.699218-14.140625-37.070312-15.203125-56.878906h23.585937c4.417969 0 8-3.582031 8-8s-3.582031-8-8-8h-23.59375c1.0625-19.808594 6.238281-39.179688 15.203125-56.878906l20.460938 11.808594c2.476562 1.449218 5.542968 1.464843 8.03125.035156 2.488281-1.429688 4.023437-4.085938 4.015625-6.957032-.007813-2.871093-1.550781-5.515624-4.046875-6.9375l-20.488282-11.832031c10.890626-16.582031 25.066407-30.757812 41.648438-41.644531l11.832031 20.484375c1.421875 2.496094 4.066407 4.042969 6.9375 4.046875 2.871094.007812 5.523438-1.523438 6.957031-4.015625 1.429688-2.488281 1.414063-5.554687-.039062-8.03125l-11.796875-20.460937c17.695313-8.964844 37.070313-14.140626 56.878906-15.203126v23.585938c0 4.417969 3.582031 8 8 8s8-3.582031 8-8v-23.59375c19.808594 1.0625 39.179688 6.238281 56.878907 15.203125l-11.808594 20.46875c-1.449219 2.476563-1.464844 5.542969-.035156 8.03125 1.429687 2.492187 4.085937 4.023437 6.957031 4.015625 2.871093-.003906 5.515625-1.550781 6.933593-4.046875l11.832032-20.484375c16.585937 10.886719 30.761718 25.0625 41.648437 41.644531l-20.488281 11.832031c-2.492188 1.421876-4.039062 4.066407-4.042969 6.9375-.007812 2.871094 1.523438 5.527344 4.015625 6.957032 2.488282 1.429687 5.550782 1.414062 8.027344-.035156l20.464844-11.808594c8.960937 17.699218 14.140625 37.070312 15.199218 56.878906h-23.582031c-4.417969 0-8 3.582031-8 8s3.582031 8 8 8h23.589844c-1.058594 19.808594-6.234375 39.179688-15.199219 56.878906l-20.472656-11.808594c-3.820312-2.171874-8.683594-.851562-10.878906 2.957032-2.199219 3.808594-.914063 8.675781 2.878906 10.902344l20.488281 11.832031c-10.886719 16.582031-25.0625 30.757812-41.648437 41.644531zm0 0"/><path d="m207.363281 209.136719v-57.136719c0-4.417969-3.582031-8-8-8s-8 3.582031-8 8v57.136719c-14.085937 3.636719-23.945312 16.316406-24 30.863281.042969 2.929688.492188 5.839844 1.335938 8.648438l-33.703125 20.519531c-2.496094 1.460937-4.007813 4.152343-3.957032 7.042969.054688 2.890624 1.660157 5.527343 4.203126 6.898437 2.542968 1.375 5.628906 1.265625 8.074218-.277344l33.359375-20.304687c9.480469 9.609375 23.980469 12.222656 36.21875 6.527344 12.238281-5.695313 19.582031-18.464844 18.339844-31.90625-1.242187-13.445313-10.796875-24.65625-23.871094-28.011719zm-8 46.863281c-8.835937 0-16-7.164062-16-16s7.164063-16 16-16c8.835938 0 16 7.164062 16 16s-7.164062 16-16 16zm0 0"/><path d="m369.066406 115.542969c3.125 3.125 8.1875 3.125 11.3125 0l11.320313-11.304688c9.375-9.371093 9.375-24.570312 0-33.941406l-22.632813-22.632813c-9.496094-9.0625-24.4375-9.0625-33.933594 0l-11.3125 11.320313c-3.125 3.125-3.125 8.1875 0 11.3125l16.964844 16.96875-11.511718 11.511719c-25.253907-23.296875-56.308594-39.375-89.910157-46.554688v-28.222656c0-13.253906-10.746093-24-24-24h-32c-13.253906 0-24 10.746094-24 24v28.222656c-33.601562 7.179688-64.65625 23.257813-89.914062 46.554688l-11.511719-11.511719 16.96875-16.96875c3.125-3.125 3.125-8.1875 0-11.3125l-11.304688-11.320313c-9.496093-9.066406-24.445312-9.066406-33.941406 0l-22.632812 22.632813c-9.371094 9.371094-9.371094 24.5625 0 33.933594l11.320312 11.3125c3.125 3.125 8.1875 3.125 11.3125 0l16.964844-16.96875 11.515625 11.515625c-38.152344 41.363281-56.199219 97.402344-49.359375 153.257812 6.839844 55.851563 37.875 105.882813 84.878906 136.820313l-3.386718 5.105469c-4.441407 6.707031-11.953126 10.738281-20 10.726562h-14.910157c-13.253906 0-24 10.746094-24 24v32c0 4.417969 3.582031 8 8 8h320c4.417969 0 8-3.582031 8-8v-32c0-13.253906-10.746093-24-24-24h-15.105469c-7.863281 0-15.226562-3.851562-19.710937-10.3125l-3.726563-5.359375c47.089844-30.894531 78.214844-80.9375 85.101563-136.835937 6.890625-55.898438-11.152344-112-49.335937-153.402344l11.511718-11.515625zm-345.0625-16.96875-5.65625-5.652344c-3.125-3.125-3.125-8.191406 0-11.3125l22.613282-22.625c3.125-3.117187 8.183593-3.117187 11.304687 0l5.65625 5.65625zm151.359375-74.574219c0-4.417969 3.582031-8 8-8h32c4.417969 0 8 3.582031 8 8v25.550781c-15.933593-2.066406-32.066406-2.066406-48 0zm120.039063 390.816406c7.476562 10.765625 19.75 17.183594 32.855468 17.183594h15.105469c4.417969 0 8 3.582031 8 8v24h-304v-24c0-4.417969 3.582031-8 8-8h14.910157c13.410156.015625 25.929687-6.699219 33.328124-17.878906l3.753907-5.65625c57.230469 31.324218 126.464843 31.382812 183.75.160156zm-96.039063 1.183594c-97.203125 0-176-78.796875-176-176s78.796875-176 176-176 176 78.796875 176 176c-.109375 97.15625-78.84375 175.890625-176 176zm147.078125-357.015625c3.164063-3.027344 8.148438-3.027344 11.3125 0l22.625 22.617187c3.117188 3.121094 3.117188 8.179688 0 11.300782l-5.65625 5.65625-33.9375-33.917969zm0 0"/></svg>